<svg width="25" height="24" viewBox="0 0 25 24" fill="none" xmlns="http://www.w3.org/2000/svg">
<path fill-rule="evenodd" clip-rule="evenodd" d="M16.3359 3H8.33594C5.57452 3 3.33594 5.23858 3.33594 8V16C3.33594 18.7614 5.57452 21 8.33594 21H16.3359C19.0973 21 21.3359 18.7614 21.3359 16V8C21.3359 5.23858 19.0973 3 16.3359 3ZM19.5859 16C19.5804 17.7926 18.1285 19.2445 16.3359 19.25H8.33594C6.54329 19.2445 5.09143 17.7926 5.08594 16V8C5.09143 6.20735 6.54329 4.75549 8.33594 4.75H16.3359C18.1285 4.75549 19.5804 6.20735 19.5859 8V16ZM17.0859 8.25C17.6382 8.25 18.0859 7.80228 18.0859 7.25C18.0859 6.69772 17.6382 6.25 17.0859 6.25C16.5336 6.25 16.0859 6.69772 16.0859 7.25C16.0859 7.80228 16.5336 8.25 17.0859 8.25ZM12.3359 7.5C9.85066 7.5 7.83594 9.51472 7.83594 12C7.83594 14.4853 9.85066 16.5 12.3359 16.5C14.8212 16.5 16.8359 14.4853 16.8359 12C16.8386 10.8057 16.3653 9.65957 15.5208 8.81508C14.6763 7.97059 13.5302 7.49734 12.3359 7.5ZM9.58594 12C9.58594 13.5188 10.8171 14.75 12.3359 14.75C13.8547 14.75 15.0859 13.5188 15.0859 12C15.0859 10.4812 13.8547 9.25 12.3359 9.25C10.8171 9.25 9.58594 10.4812 9.58594 12Z" fill="#CBCFD7"/>
</svg>
