<svg width="25" height="24" viewBox="0 0 25 24" fill="none" xmlns="http://www.w3.org/2000/svg">
<path fill-rule="evenodd" clip-rule="evenodd" d="M5.33594 3H19.3359C20.4405 3 21.3359 3.89543 21.3359 5V19C21.3359 20.1046 20.4405 21 19.3359 21H5.33594C4.23137 21 3.33594 20.1046 3.33594 19V5C3.33594 3.89543 4.23137 3 5.33594 3ZM8.33594 18C8.61208 18 8.83594 17.7761 8.83594 17.5V10.5C8.83594 10.2239 8.61208 10 8.33594 10H6.83594C6.5598 10 6.33594 10.2239 6.33594 10.5V17.5C6.33594 17.7761 6.5598 18 6.83594 18H8.33594ZM7.58594 9C6.75751 9 6.08594 8.32843 6.08594 7.5C6.08594 6.67157 6.75751 6 7.58594 6C8.41437 6 9.08594 6.67157 9.08594 7.5C9.08594 8.32843 8.41437 9 7.58594 9ZM17.8359 18C18.112 18 18.3359 17.7761 18.3359 17.5V12.9C18.3684 11.3108 17.1935 9.95452 15.6159 9.76C14.5129 9.65925 13.4442 10.1744 12.8359 11.1V10.5C12.8359 10.2239 12.612 10 12.3359 10H10.8359C10.5598 10 10.3359 10.2239 10.3359 10.5V17.5C10.3359 17.7761 10.5598 18 10.8359 18H12.3359C12.612 18 12.8359 17.7761 12.8359 17.5V13.75C12.8359 12.9216 13.5075 12.25 14.3359 12.25C15.1643 12.25 15.8359 12.9216 15.8359 13.75V17.5C15.8359 17.7761 16.0598 18 16.3359 18H17.8359Z" fill="#CBCFD7"/>
</svg>
