<svg width="25" height="24" viewBox="0 0 25 24" fill="none" xmlns="http://www.w3.org/2000/svg">
<path d="M14.9047 4C16.0676 4 17.1427 4.61841 17.7273 5.6236L20.4812 10.3583C21.0714 11.3732 21.0714 12.6268 20.4812 13.6417L17.7273 18.3764C17.1427 19.3816 16.0676 20 14.9047 20H9.3551C8.19225 20 7.11715 19.3816 6.53251 18.3764L3.77865 13.6417C3.18837 12.6268 3.18837 11.3732 3.77865 10.3583L6.53251 5.6236C7.11715 4.61841 8.19225 4 9.3551 4L14.9047 4Z" fill="#CBCFD7"/>
<path fill-rule="evenodd" clip-rule="evenodd" d="M15.2314 14.4488C15.5226 14.6616 15.589 15.0747 15.3371 15.3328C13.5872 17.1251 10.6714 17.1251 8.92158 15.3328C8.66962 15.0747 8.73607 14.6616 9.02728 14.4488V14.4488C9.31848 14.236 9.72326 14.3064 9.99014 14.549C11.1957 15.6449 13.063 15.6449 14.2685 14.549C14.5354 14.3064 14.9402 14.236 15.2314 14.4488V14.4488Z" fill="#1D1C21"/>
</svg>
